PathFileType	4	(X/Y/Z)	C:/Users/opensim2020/Desktop/walking_exp_matlab/subject06_cal10_run.trc																																																																																																																																																	
DataRate	CameraRate	NumFrames	NumMarkers	Units	OrigDataRate	OrigDataStartFrame	OrigNumFrames																																																																																																																																													
100	100	4	49	mm	100	198	118																																																																																																																																													
Frame#	Time	LKNE			RTIB			RFRM			RWRA			LTHI			RKNE			RELB			RFHD			LWRA			RUPA			STRN			RASI			CLAV			RSHO			LASI			RTHI			RBHD			LBHD			C7			RWRB			RFIN			RTOE			LSHO			RBAK			LTIB			RANK			LFIN			LANK			RHEE			T10			LHEE			LTOE			LFHD			LPSI			RPSI			LUPA			LELB			LFRM			LWRB			*39			*40			*41			*42			*43			*44			*45			*46			*47			*48		
		X1	Y1	Z1	X2	Y2	Z2	X3	Y3	Z3	X4	Y4	Z4	X5	Y5	Z5	X6	Y6	Z6	X7	Y7	Z7	X8	Y8	Z8	X9	Y9	Z9	X10	Y10	Z10	X11	Y11	Z11	X12	Y12	Z12	X13	Y13	Z13	X14	Y14	Z14	X15	Y15	Z15	X16	Y16	Z16	X17	Y17	Z17	X18	Y18	Z18	X19	Y19	Z19	X20	Y20	Z20	X21	Y21	Z21	X22	Y22	Z22	X23	Y23	Z23	X24	Y24	Z24	X25	Y25	Z25	X26	Y26	Z26	X27	Y27	Z27	X28	Y28	Z28	X29	Y29	Z29	X30	Y30	Z30	X31	Y31	Z31	X32	Y32	Z32	X33	Y33	Z33	X34	Y34	Z34	X35	Y35	Z35	X36	Y36	Z36	X37	Y37	Z37	X38	Y38	Z38	X39	Y39	Z39	X40	Y40	Z40	X41	Y41	Z41	X42	Y42	Z42	X43	Y43	Z43	X44	Y44	Z44	X45	Y45	Z45	X46	Y46	Z46	X47	Y47	Z47	X48	Y48	Z48	X49	Y49	Z49
																																																																																																																																																				
30	0.29	99.48392	478.59109	1073.22461	327.08197	280.05017	874.89911	508.66254	1092.88684	1069.6864	431.68893	1053.37524	953.02997	72.33708	640.47522	1038.72803	346.82681	546.9986	865.09045	527.26489	1181.10498	1132.62048	355.09299	1637.32263	827.95709	125.5978	1194.4115	835.38947	498.4621	1282.93457	1085.32227	245.43347	1185.64038	860.92767	336.01813	968.34998	932.146	263.55392	1366.11194	872.97162	409.10483	1402.81226	945.13708	122.62145	953.52728	917.35663	382.79749	658.20062	917.65631	339.72595	1598.61255	962.62909	211.17641	1610.4054	953.29504	250.3119	1458.89001	968.57379	465.71481	1002.0744	978.14026	455.80267	994.48859	898.1618	243.36928	32.46962	734.53625	107.07887	1428.77454	893.52087	289.23016	1310.11108	1073.03394	107.32771	342.46487	1288.55322	266.6066	100.48933	884.66412	168.77524	1166.96387	758.48938	142.59282	247.36542	1429.41309	224.63118	87.77269	925.63171	212.35762	1151.31494	1058.20117	194.29315	264.59268	1460.94849	122.83742	114.96461	1375.58752	224.31871	1654.71631	816.90955	132.30444	1009.42188	1061.67004	298.1991	1013.17578	1072.87964	-17.90845	1277.67102	932.33063	-70.28728	1187.50696	967.39087	15.27055	1140.81226	878.71313	113.87515	1127.67749	817.0354							278.03696	-918.57941	1698.14819																					 
31	0.3	98.60088	468.32571	1016.28723	324.90335	271.34247	859.70551	511.42331	1077.73901	1020.97882	431.39798	1042.00134	905.17847	71.98753	631.16095	989.42633	346.14722	538.68378	833.13721	531.22772	1164.40576	1085.80286	356.37357	1631.63403	795.74384	124.41206	1181.5592	803.37347	502.8067	1267.52954	1042.91968	246.85667	1180.04358	823.52753	337.07132	962.76703	897.74005	263.75781	1359.41895	837.93396	410.44568	1394.14001	909.02173	123.5431	946.76123	880.58588	379.87909	652.44586	882.62042	341.36713	1591.17334	929.86755	212.79965	1603.27136	921.2384	252.13315	1451.62671	934.37158	465.51526	989.76147	928.18439	454.25009	984.4342	848.4101	243.99252	32.30924	736.28369	107.54048	1422.84778	861.16956	291.36942	1302.26794	1037.69702	106.68214	337.25854	1232.55566	265.03903	93.18732	885.49133	165.22298	1151.17944	726.36719	140.66876	244.89249	1374.75061	223.97928	81.07027	928.71039	212.18456	1144.63306	1022.74396	193.15025	260.18466	1406.84216	115.85608	116.42751	1317.73547	225.52322	1649.27234	785.38989	131.32086	1002.14172	1025.33643	297.422	1006.48291	1039.32312	-17.19602	1272.86963	903.23828	-68.18039	1182.8429	939.62396	13.82676	1132.13794	850.44482	110.50424	1114.83728	786.84955							279.59805	-887.39069	1691.31934																					 
32	0.31	97.81091	458.54373	958.54205	324.74713	264.39294	845.08777	513.88342	1061.98157	971.45648	430.50525	1030.22534	856.93317	71.42407	621.776	939.58643	344.84698	529.62939	800.453	535.15271	1147.01208	1037.78076	357.2211	1625.47693	763.33252	122.19678	1167.21313	771.7337	507.14938	1251.04932	999.6886	246.12611	1173.29089	788.50507	338.56146	955.70789	863.69751	263.94855	1352.15918	802.69244	412.04578	1384.65466	872.44037	125.00175	939.1322	844.26935	380.24268	644.10516	848.93634	342.73898	1583.20996	897.03986	214.14899	1595.62891	889.073	253.79265	1443.6333	900.15302	464.91458	977.27386	877.38971	452.17303	974.25116	798.19409	242.27141	32.03781	737.77167	107.57076	1416.04614	828.94757	293.82849	1293.19751	1002.53906	105.37117	332.83215	1174.60681	264.39484	89.81583	888.17523	160.40393	1133.77917	694.66663	137.93019	242.12236	1317.56079	223.92981	77.4086	931.62085	212.45612	1136.50476	987.17682	190.51866	256.10809	1350.65991	111.20322	118.21519	1255.22131	226.45781	1643.48022	753.70209	130.55389	994.28149	989.55005	297.03983	998.88074	1005.26904	-16.74107	1267.12622	875.06683	-66.66715	1177.68762	913.03607	11.42246	1122.70068	822.81506	106.00063	1100.54871	757.28009							280.94583	-856.12018	1683.97351																					 
33	0.32	97.31996	449.87033	899.55579	325.1442	259.508	830.10339	515.409	1046.03394	921.13409	428.81198	1018.61023	808.24646	70.91177	612.78735	889.34906	342.72992	519.34753	769.11041	538.85321	1128.88623	988.96063	357.93619	1619.18555	730.69946	118.90459	1151.55762	740.64636	511.42215	1233.94727	955.67688	245.69797	1164.59998	753.08514	340.46298	947.38647	830.14905	264.09897	1344.4054	767.21716	414.06274	1374.88293	835.37988	126.58382	931.08051	808.57977	380.53973	633.70728	818.35718	343.91876	1575.05322	863.98639	215.34146	1587.72009	856.75964	255.29996	1435.29102	865.89917	463.48901	964.8623	826.00641	449.38861	964.72467	747.36768	242.23453	31.63204	736.70306	107.13799	1408.41687	796.76495	296.66449	1283.11328	967.8302	103.52686	328.72192	1114.39551	264.78381	87.64191	884.0788	153.7455	1114.93591	663.47162	134.70918	239.17603	1257.68982	225.22371	75.58705	930.63336	213.25847	1127.67078	952.34528	186.99786	252.46017	1291.8075	108.13284	116.43832	1194.60828	227.02765	1637.40076	722.11188	129.62315	986.18939	955.07654	297.10849	991.10638	972.17963	-16.54157	1260.39148	847.64581	-64.76948	1171.80945	887.14819	8.48339	1112.09607	796.11249	100.39079	1085.07874	728.51019							282.13333	-824.70746	1676.33545																					 
